<svg width="159" height="52" viewBox="0 0 159 52" fill="none" xmlns="http://www.w3.org/2000/svg">
<path d="M1.89245 46.3943L-1.16825e-05 48.0279L3.26715 51.8128L5.15961 50.1793L3.52603 48.2868L1.89245 46.3943ZM153.947 31.2251C155.017 32.0972 156.592 31.9365 157.464 30.8662C158.336 29.7958 158.176 28.2211 157.105 27.3489L155.526 29.287L153.947 31.2251ZM3.52603 48.2868L5.15961 50.1793C34.1235 25.1775 58.1759 9.83791 81.4459 5.96985C104.5 2.13762 127.288 9.50324 153.947 31.2251L155.526 29.287L157.105 27.3489C129.764 5.07084 105.565 -3.10796 80.626 1.03753C55.9026 5.14719 30.9549 21.3075 1.89245 46.3943L3.52603 48.2868Z" fill="white"/>
</svg>
